<?xml version="1.0" encoding="utf-8"?>
<!-- Generator: Adobe Illustrator 30.1.0, SVG Export Plug-In . SVG Version: 9.03 Build 0)  -->
<svg version="1.1" id="Layer_1" xmlns="http://www.w3.org/2000/svg" xmlns:xlink="http://www.w3.org/1999/xlink" x="0px" y="0px"
	 viewBox="0 0 445.8 400.8" style="enable-background:new 0 0 445.8 400.8;" xml:space="preserve">
<style type="text/css">
	.st0{fill:url(#SVGID_1_);stroke:#FAFBFA;stroke-width:2;stroke-miterlimit:10;}
</style>
<linearGradient id="SVGID_1_" gradientUnits="userSpaceOnUse" x1="14.29" y1="201.5953" x2="452.67" y2="201.5953" gradientTransform="matrix(1 0 0 -1 0 402)">
	<stop  offset="0" style="stop-color:#FFFFFF"/>
	<stop  offset="0.9264" style="stop-color:#F2F4F3"/>
</linearGradient>
<path class="st0" d="M443.9,184.1c-3.5,3.5-12.4,2.8-20.5,2.8h-37.8c-2.8,0-4.9,2.6-4.3,5.3c0,0,0,0,0,0.1
	c8.4,36.8-3.5,60.9-22.2,89.9l-32.9,51c-28.8,40.3-55.9,66-94.9,66.5c-29.9,1.2-46.1-5.6-64.7-15.9c-25.6-13.6-39.6-36.3-53.4-63.6
	c-0.8-1.5-2.3-2.4-3.9-2.4c-39.6,0.1-42.3,0.5-64.3-31.8l-21.9-31.8c-6.6-9.7-13.6-19.1-20-29.1c-9.9-15.8,18.5-12.9,25.7-12.9
	l33.8,0.1c2.9,0,5-2.7,4.3-5.5c-0.3-1.2-0.7-2.5-0.9-3.7c-8.2-36.4,6.7-62.8,25.2-91.4l31-48.2C145.5,26.3,171.5,5.3,217.7,1
	c0.1,0,0.3,0,0.4,0c39.7-0.5,77,15,99.2,49.5c6.4,9.8,13.4,19.6,19.2,29.8c0.8,1.4,2.2,2.3,3.9,2.2c32.2-0.1,40.5,0.5,59.6,28.7
	l32.8,48.2C432.7,159.5,448.7,179.3,443.9,184.1L443.9,184.1z M313.2,332.9c6.1-8.1,21.9-34.2,21.9-34.2c9.7-15.1,25.6-35.9,31.3-52
	c5.8-16.4,7.5-38.8,3.6-56.3c-0.4-2-2.2-3.4-4.3-3.4h-46.9c-51.9,0-52.7-3.1-83.5-47.7c-4.3-6.3-8.9-12.7-12.8-19.1
	c-2.9-4.9-0.4-11,5.8-9.9c4.1,0.7,7.4,7.5,9.6,10.6c8.5,11.9,20.5,33.1,30.3,42.5c12.2,11.7,25.4,11.7,41.1,11.7h111.1
	c3.5,0,5.6-3.9,3.7-6.8c-11.4-17.4-23.6-34.5-35.1-51.9c-16.2-24.4-28.2-20.6-54.3-20.6h-85.4c-37.7-0.1-36.8,3.3-58.2,36
	c0,0-39.1,64.2-42.3,67.4c-4.9,5-14.9,1.1-12-7.1c1.3-3.6,42.2-65.9,42.2-65.9c19.9-31.5,25.4-43.9,63.9-43.6h19.1
	c17.3,0,35.6-0.4,53.1-0.2c3.5,0,5.6-3.8,3.7-6.8L312,65.3c-20-31.4-49.4-53.7-88.7-52c-47.1,1.2-69.9,24.1-92.8,60.2l-36.9,59.7
	c-16.4,27.1-22,46.6-12.8,75.9c0.6,1.8,2.3,3.1,4.2,3.1h39.7c39.7,0,54.3-1,77.3,33.1l11.8,17.5c4.2,6.2,8.5,12.1,12.9,18.6
	c4.9,7.6-3.6,16.6-11.2,6.7c-6.5-9.4-12.9-18.6-19.1-28.1c-19.2-28.8-24.3-34.6-59.5-34.6H26.7c-3.5,0-5.6,4-3.6,6.9l26.4,38.3
	c20.8,30.1,16.7,34.2,57.1,34.2H196c0.1,0,14.1,0,14.2,0c20.4-0.3,23.7,0.4,37.9-22.8l27.9-42.8c4.5-6.9,20.7-34.1,25.4-38.6
	c4.2-4,12.1,0.6,10.6,6.4c-0.8,2.9-16.6,25.7-19.4,30.1l-33.2,51.9c-10,16.7-17.7,25.9-30.6,28c-1.6,0.3-15,0.5-16.7,0.6l-80,0.7
	c-3.2,0.1-4.8,4.3-3.4,7.2c18.5,39.5,62,63.2,102.2,62.2C264.6,386.6,288.8,365.5,313.2,332.9L313.2,332.9z"/>
</svg>
